<svg xmlns="http://www.w3.org/2000/svg">
  <defs>
    <style>
      .bg{fill:#10171e}.panel{fill:#141e26;stroke:#344653}.line{fill:none;stroke:#496270;stroke-width:2}.cyan{fill:none;stroke:#67c7ca;stroke-width:2}.warm{fill:#e8ae58}.dot{fill:#10171e;stroke:#90a5b3;stroke-width:2}.cdot{fill:#67c7ca}.txt{fill:#aebbc4;font:500 14px Arial,sans-serif;letter-spacing:1.5px}.small{fill:#8597a3;font:500 11px Arial,sans-serif;letter-spacing:1.4px}.title{fill:#f4f7f8;font:600 18px Arial,sans-serif}.ctxt{fill:#67c7ca;font:600 15px Arial,sans-serif}.wtext{fill:#e8ae58;font:600 14px Arial,sans-serif}.ghost{fill:none;stroke:#263640;stroke-width:1.5}.soft{fill:#141e26;stroke:#67c7ca;stroke-opacity:.55}.arrow{fill:none;stroke:#e8ae58;stroke-width:2;marker-end:url(#arrow)}
    </style>
    <marker id="arrow" markerWidth="8" markerHeight="8" refX="7" refY="4" orient="auto"><path d="M0 0l8 4-8 4z" fill="#e8ae58"/></marker>
  </defs>

  <symbol id="four-stakeholders" viewBox="0 0 760 620">
    <ellipse class="ghost" cx="390" cy="325" rx="300" ry="235"/><ellipse class="ghost" cx="390" cy="325" rx="225" ry="170"/>
    <path class="line" d="M156 170L380 310 604 170M156 470L380 310 604 470"/><circle class="soft" cx="380" cy="310" r="76"/>
    <g transform="translate(88 120)"><circle class="dot" cx="16" cy="16" r="8"/><text class="txt" x="36" y="21">LEARNER</text></g>
    <g transform="translate(558 120)"><circle class="dot" cx="16" cy="16" r="8"/><text class="txt" x="36" y="21">EDUCATOR</text></g>
    <g transform="translate(72 454)"><circle class="dot" cx="16" cy="16" r="8"/><text class="txt" x="36" y="21">INSTITUTION</text></g>
    <g transform="translate(552 454)"><circle class="cdot" cx="16" cy="16" r="8"/><text class="ctxt" x="36" y="21">AI</text></g>
    <image href="penguin-ai.png" x="270" y="196" width="220" height="220"/>
    <text class="small" x="380" y="568" text-anchor="middle">FOUR STAKEHOLDERS · ONE LEARNING SYSTEM</text>
  </symbol>

  <symbol id="before-after" viewBox="0 0 900 330">
    <text class="small" x="38" y="35">CONTAINERS</text><text class="small" x="500" y="35">CONNECTED LEARNING FLOW</text>
    <g transform="translate(38 62)"><rect class="panel" width="245" height="56" rx="8"/><text class="txt" x="22" y="35">COURSE</text><rect class="panel" y="72" width="245" height="56" rx="8"/><text class="txt" x="22" y="107">CONTENT</text><rect class="panel" y="144" width="245" height="56" rx="8"/><text class="txt" x="22" y="179">SCORE</text></g>
    <path class="arrow" d="M320 162h108"/><text class="small" x="374" y="148" text-anchor="middle">BECOMES</text>
    <path class="arrow" d="M750 181c0 105-160 105-160 0"/>
    <path class="cyan" d="M510 163h320"/><g transform="translate(510 163)"><circle class="dot" r="9"/><circle class="dot" cx="80" r="9"/><circle class="dot" cx="160" r="9"/><circle class="warm" cx="240" r="9"/><circle class="cdot" cx="320" r="9"/></g>
    <g class="small" text-anchor="middle"><text x="510" y="205">INTENT</text><text x="590" y="137">JOURNEY</text><text x="670" y="205">EXPERIENCE</text><text x="750" y="137">EVIDENCE</text><text x="830" y="205">NEXT ACTION</text></g>
  </symbol>

  <symbol id="adaptive-loop" viewBox="0 0 900 310">
    <path class="line" d="M90 120h720"/><g transform="translate(90 120)"><circle class="dot" r="11"/><circle class="dot" cx="180" r="11"/><circle class="dot" cx="360" r="11"/><circle class="warm" cx="540" r="11"/><circle class="cdot" cx="720" r="11"/></g>
    <g class="txt" text-anchor="middle"><text x="90" y="90">INTENT</text><text x="270" y="90">JOURNEY</text><text x="450" y="90">EXPERIENCE</text><text x="630" y="90">EVIDENCE</text><text x="810" y="90">ADAPTATION</text></g>
    <path class="arrow" d="M810 152v60c0 38-42 55-92 55H356c-50 0-86-16-86-52v-55"/><text class="wtext" x="540" y="250" text-anchor="middle">EVIDENCE RETURNS TO THE JOURNEY</text>
  </symbol>

  <symbol id="operating-layer" viewBox="0 0 1000 520">
    <text class="small" x="35" y="35">EXPERIENCES</text><g transform="translate(35 58)"><rect class="panel" width="170" height="65" rx="8"/><rect class="panel" x="190" width="170" height="65" rx="8"/><rect class="panel" x="380" width="170" height="65" rx="8"/><rect class="panel" x="570" width="170" height="65" rx="8"/><rect class="panel" x="760" width="170" height="65" rx="8"/><g class="txt" text-anchor="middle"><text x="85" y="39">LEARNER</text><text x="275" y="39">EDUCATOR</text><text x="465" y="39">INSTITUTION</text><text x="655" y="39">AI EXPERIENCE</text><text x="845" y="39">PROVIDER</text></g></g>
    <g class="line"><path d="M120 123v70M310 123v70M500 123v70M690 123v70M880 123v70"/></g>
    <rect class="soft" x="35" y="193" width="930" height="150" rx="16"/><text class="ctxt" x="65" y="228">PINGUBOT · LEARNING OPERATING LAYER</text>
    <g class="title" text-anchor="middle"><text x="120" y="292">Intent</text><text x="270" y="292">Journey</text><text x="420" y="292">Context</text><text x="570" y="292">Evidence</text><text x="720" y="292">Intelligence</text><text x="875" y="292">Authority</text></g>
    <g class="line"><path d="M120 343v60M310 343v60M500 343v60M690 343v60M880 343v60"/></g><text class="small" x="35" y="462">EXISTING SYSTEMS</text>
    <g class="small" text-anchor="middle"><text x="120" y="430">CONTENT</text><text x="310" y="430">ASSESSMENT</text><text x="500" y="430">DATA</text><text x="690" y="430">IDENTITY</text><text x="880" y="430">SERVICES</text></g>
  </symbol>

  <symbol id="journey-dag" viewBox="0 0 900 400">
    <text class="small" x="40" y="35">ONE OBJECTIVE · MULTIPLE VALID ROUTES · SHARED EVIDENCE</text>
    <path class="arrow" d="M805 214c0 172-595 176-595 0"/>
    <g class="line"><path d="M90 190h120M210 190L350 105M210 190l140 85M350 105h165M350 275h165M515 105l140 85M515 275l140-85M655 190h150"/></g>
    <g><circle class="warm" cx="90" cy="190" r="16"/><circle class="dot" cx="210" cy="190" r="16"/><circle class="dot" cx="350" cy="105" r="16"/><circle class="dot" cx="350" cy="275" r="16"/><circle class="dot" cx="515" cy="105" r="16"/><circle class="dot" cx="515" cy="275" r="16"/><circle class="cdot" cx="655" cy="190" r="16"/><circle class="warm" cx="805" cy="190" r="16"/></g>
    <g class="small" text-anchor="middle"><text x="90" y="238">OBJECTIVE</text><text x="210" y="158">CHOICE</text><text x="350" y="70">ACTIVITY A</text><text x="350" y="248">ACTIVITY B</text><text x="515" y="70">PRACTICE</text><text x="515" y="248">SUPPORT</text><text x="655" y="158">JOIN</text><text x="805" y="158">EVIDENCE</text></g>
  </symbol>

  <symbol id="context-travels" viewBox="0 0 900 390">
    <g transform="translate(25 82)"><rect class="panel" width="220" height="210" rx="12"/><text class="small" x="24" y="35">SOURCE CONTEXT</text><g class="txt"><text x="24" y="80">Role</text><text x="24" y="112">Objective</text><text x="24" y="144">History</text><text x="24" y="176">Permission</text></g></g>
    <path class="cyan" d="M245 187h210M565 187h110M565 187l110-95M565 187l110 95"/><rect class="soft" x="455" y="137" width="110" height="100" rx="50"/><text class="ctxt" x="510" y="192" text-anchor="middle">CONTEXT</text>
    <g transform="translate(675 48)"><rect class="panel" width="190" height="72" rx="10"/><rect class="panel" y="103" width="190" height="72" rx="10"/><rect class="panel" y="206" width="190" height="72" rx="10"/><g class="txt" text-anchor="middle"><text x="95" y="43">SERVICE A</text><text x="95" y="146">SERVICE B</text><text x="95" y="249">AI ROLE</text></g></g>
    <text class="small" x="510" y="275" text-anchor="middle">ONLY THE REQUIRED SUBSET TRAVELS</text>
  </symbol>

  <symbol id="ai-role-contract" viewBox="0 0 900 500">
    <circle class="soft" cx="450" cy="250" r="78"/><text class="ctxt" x="450" y="238" text-anchor="middle">AI ROLE</text><text class="small" x="450" y="265" text-anchor="middle">DEFINED</text><text class="small" x="450" y="282" text-anchor="middle">PARTICIPATION</text>
    <g class="line"><path d="M380 215L225 120M450 172V72M520 215l155-95M380 285L225 380M450 328v100M520 285l155 95"/></g>
    <g><rect class="panel" x="100" y="70" width="180" height="78" rx="10"/><rect class="panel" x="360" y="25" width="180" height="78" rx="10"/><rect class="panel" x="620" y="70" width="180" height="78" rx="10"/><rect class="panel" x="100" y="352" width="180" height="78" rx="10"/><rect class="panel" x="360" y="397" width="180" height="78" rx="10"/><rect class="panel" x="620" y="352" width="180" height="78" rx="10"/></g>
    <g class="txt" text-anchor="middle"><text x="190" y="117">PURPOSE</text><text x="450" y="72">CONTEXT</text><text x="710" y="117">AUTHORITY</text><text x="190" y="399">TOOLS</text><text x="450" y="444">VISIBILITY</text><text x="710" y="399">ACCOUNTABILITY</text></g>
  </symbol>

  <symbol id="feedback-loop" viewBox="0 0 900 280">
    <path class="arrow" d="M780 126c0 128-660 128-660 0"/>
    <path class="line" d="M120 105h660"/>
    <g><circle class="dot" cx="120" cy="105" r="11"/><circle class="dot" cx="340" cy="105" r="11"/><circle class="dot" cx="560" cy="105" r="11"/><circle class="warm" cx="780" cy="105" r="11"/></g>
    <g class="txt" text-anchor="middle"><text x="120" y="65">CONTEXT</text><text x="340" y="65">ACTION</text><text x="560" y="65">OUTCOME</text><text class="wtext" x="780" y="65">FEEDBACK</text></g>
    <text class="small" x="450" y="245" text-anchor="middle">WHAT HAPPENED RETURNS TO THE NEXT DECISION</text>
  </symbol>

  <symbol id="pov-chatbot" viewBox="0 0 620 280"><rect class="panel" x="220" y="55" width="185" height="165" rx="14"/><path class="line" d="M250 95h125M250 130h86M250 165h110"/><g class="small"><text x="32" y="55">OBJECTIVE</text><text x="28" y="140">EVIDENCE</text><text x="450" y="55">AUTHORITY</text><text x="465" y="140">JOURNEY</text></g><path class="line" stroke-dasharray="6 9" d="M105 61l105 46M100 143l110 12M450 61l-35 47M465 143l-50 18"/><text class="wtext" x="312" y="258" text-anchor="middle">A WINDOW WITHOUT A SYSTEM</text></symbol>
  <symbol id="pov-adaptation" viewBox="0 0 620 280"><text class="small" x="130" y="35" text-anchor="middle">PERSONALIZATION</text><text class="small" x="480" y="35" text-anchor="middle">ADAPTATION</text><g class="line"><path d="M45 135h170M405 135h60M465 135l80-65M465 135l80 65"/></g><g><circle class="dot" cx="45" cy="135" r="11"/><circle class="dot" cx="130" cy="135" r="11"/><circle class="dot" cx="215" cy="135" r="11"/><circle class="dot" cx="405" cy="135" r="11"/><circle class="warm" cx="465" cy="135" r="11"/><circle class="cdot" cx="545" cy="70" r="11"/><circle class="dot" cx="545" cy="200" r="11"/></g><text class="txt" x="130" y="245" text-anchor="middle">WHAT YOU SEE</text><text class="ctxt" x="480" y="245" text-anchor="middle">WHAT HAPPENS NEXT</text></symbol>
  <symbol id="pov-ecosystem" viewBox="0 0 620 280"><g class="line"><path d="M310 140L125 86M310 140L125 194M310 140L495 86M310 140l185 54"/></g><g><circle class="dot" cx="125" cy="86" r="8"/><circle class="dot" cx="125" cy="194" r="8"/><circle class="dot" cx="495" cy="86" r="8"/><circle class="cdot" cx="495" cy="194" r="8"/></g><circle class="soft" cx="310" cy="140" r="72"/><text class="ctxt" x="310" y="146" text-anchor="middle">LMS</text><g class="txt" text-anchor="middle"><text x="125" y="48">CONTENT</text><text x="125" y="238">ASSESSMENT</text><text x="495" y="48">IDENTITY</text><text x="495" y="238">AI SERVICE</text></g></symbol>
  <symbol id="pov-model" viewBox="0 0 620 280"><rect class="soft" x="235" y="72" width="150" height="135" rx="18"/><text class="ctxt" x="310" y="132" text-anchor="middle">ROLE</text><text class="small" x="310" y="157" text-anchor="middle">STABLE SOCKET</text><g class="line"><path d="M85 80h135M85 140h135M85 200h135M400 140h135"/></g><g class="txt"><text x="25" y="85">MODEL A</text><text x="25" y="145">MODEL B</text><text x="25" y="205">MODEL C</text><text x="445" y="130">CONTEXT</text><text x="445" y="153">+ AUTHORITY</text></g></symbol>

  <symbol id="difficult-middle" viewBox="0 0 960 360"><rect class="panel" x="30" y="105" width="180" height="130" rx="12"/><rect class="panel" x="750" y="105" width="180" height="130" rx="12"/><text class="title" x="120" y="163" text-anchor="middle">Educational</text><text class="title" x="120" y="190" text-anchor="middle">vision</text><text class="title" x="840" y="163" text-anchor="middle">Real learning</text><text class="title" x="840" y="190" text-anchor="middle">experience</text><path class="cyan" d="M210 170h540"/><g><circle class="warm" cx="300" cy="170" r="10"/><circle class="dot" cx="390" cy="170" r="10"/><circle class="dot" cx="480" cy="170" r="10"/><circle class="dot" cx="570" cy="170" r="10"/><circle class="cdot" cx="660" cy="170" r="10"/></g><g class="small" text-anchor="middle"><text x="300" y="213">MODELS</text><text x="390" y="213">ARCHITECTURE</text><text x="480" y="213">SERVICES</text><text x="570" y="213">DATA</text><text x="660" y="213">INTELLIGENCE</text></g><text class="wtext" x="480" y="294" text-anchor="middle">THE DIFFICULT MIDDLE</text></symbol>
</svg>
